STARTFONT 2.1
FONT -sun-arioso-bold-r-normal--14-140-75-75-p-75-adobe-fontspecific
SIZE 14 75 75
FONTBOUNDINGBOX 19 17 -3 -4

STARTPROPERTIES 28
FOUNDRY "sun"
FAMILY_NAME "arioso"
WEIGHT_NAME "bold"
SLANT "r"
SETWIDTH_NAME "normal"
ADD_STYLE_NAME ""
PIXEL_SIZE 15
POINT_SIZE 140
RESOLUTION_X 75
RESOLUTION_Y 75
SPACING "p"
AVERAGE_WIDTH 75
CHARSET_REGISTRY "adobe"
CHARSET_ENCODING "fontspecific"
COPYRIGHT "© 1999 Sun Microsystems, Inc."
RAW_PIXELSIZE 1000
RAW_POINTSIZE 964
RAW_ASCENT 906
RAW_DESCENT 247
RAW_AVERAGE_WIDTH 5188
FACE_NAME "AriosoBold"
_XMBDFED_INFO "Edited with xmbdfed 2.4."
WEIGHT 10
X_HEIGHT -1
QUAD_WIDTH 8
DEFAULT_CHAR 4
FONT_DESCENT 4
FONT_ASCENT 13
ENDPROPERTIES

CHARS 195

STARTCHAR char32
ENCODING 32
SWIDTH 24 0
DWIDTH 4 0
BBX 0 0 0 0
BITMAP
ENDCHAR

STARTCHAR char33
ENCODING 33
SWIDTH 30 0
DWIDTH 5 0
BBX 5 10 1 0
BITMAP
10
30
30
20
20
20
20
00
C0
C0
ENDCHAR

STARTCHAR char34
ENCODING 34
SWIDTH 36 0
DWIDTH 6 0
BBX 6 4 1 6
BITMAP
6C
6C
48
B0
ENDCHAR

STARTCHAR char35
ENCODING 35
SWIDTH 49 0
DWIDTH 8 0
BBX 8 11 0 0
BITMAP
12
12
14
7F
24
24
24
FE
24
28
28
ENDCHAR

STARTCHAR char36
ENCODING 36
SWIDTH 49 0
DWIDTH 8 0
BBX 8 12 0 -1
BITMAP
02
3F
65
64
78
38
0E
16
96
A4
B8
40
ENDCHAR

STARTCHAR char37
ENCODING 37
SWIDTH 5 0
DWIDTH 11 0
BBX 11 9 0 0
BITMAP
2080
5100
9200
94C0
A560
4B60
1360
2340
4180
ENDCHAR

STARTCHAR char38
ENCODING 38
SWIDTH 49 0
DWIDTH 8 0
BBX 7 9 0 0
BITMAP
0C
36
3C
30
3A
4A
CE
CE
74
ENDCHAR

STARTCHAR char39
ENCODING 39
SWIDTH 18 0
DWIDTH 3 0
BBX 3 4 1 6
BITMAP
40
C0
C0
80
ENDCHAR

STARTCHAR char40
ENCODING 40
SWIDTH 30 0
DWIDTH 5 0
BBX 6 13 0 -3
BITMAP
08
08
10
30
60
60
40
40
C0
C0
40
40
40
ENDCHAR

STARTCHAR char41
ENCODING 41
SWIDTH 30 0
DWIDTH 5 0
BBX 5 13 -1 -3
BITMAP
08
08
08
08
18
18
18
30
30
20
40
80
80
ENDCHAR

STARTCHAR char42
ENCODING 42
SWIDTH 30 0
DWIDTH 5 0
BBX 4 5 2 5
BITMAP
60
F0
60
F0
20
ENDCHAR

STARTCHAR char43
ENCODING 43
SWIDTH 55 0
DWIDTH 9 0
BBX 8 8 1 0
BITMAP
18
18
18
FF
18
18
18
18
ENDCHAR

STARTCHAR char44
ENCODING 44
SWIDTH 18 0
DWIDTH 3 0
BBX 3 4 0 -2
BITMAP
60
60
40
80
ENDCHAR

STARTCHAR char45
ENCODING 45
SWIDTH 30 0
DWIDTH 5 0
BBX 5 1 0 3
BITMAP
F0
ENDCHAR

STARTCHAR char46
ENCODING 46
SWIDTH 18 0
DWIDTH 3 0
BBX 2 2 0 0
BITMAP
C0
C0
ENDCHAR

STARTCHAR char47
ENCODING 47
SWIDTH 43 0
DWIDTH 7 0
BBX 7 10 0 0
BITMAP
02
04
08
08
10
10
20
40
40
80
ENDCHAR

STARTCHAR char48
ENCODING 48
SWIDTH 49 0
DWIDTH 8 0
BBX 7 9 0 0
BITMAP
1C
32
62
62
46
C6
44
4C
38
ENDCHAR

STARTCHAR char49
ENCODING 49
SWIDTH 49 0
DWIDTH 8 0
BBX 5 9 2 0
BITMAP
08
30
F0
B0
20
60
60
40
C0
ENDCHAR

STARTCHAR char50
ENCODING 50
SWIDTH 49 0
DWIDTH 8 0
BBX 7 9 0 0
BITMAP
1C
26
26
26
0C
30
60
56
F8
ENDCHAR

STARTCHAR char51
ENCODING 51
SWIDTH 49 0
DWIDTH 8 0
BBX 7 9 0 0
BITMAP
3C
26
06
2C
38
0C
0C
88
F0
ENDCHAR

STARTCHAR char52
ENCODING 52
SWIDTH 49 0
DWIDTH 8 0
BBX 8 9 0 0
BITMAP
02
02
06
1C
2C
4C
FE
18
18
ENDCHAR

STARTCHAR char53
ENCODING 53
SWIDTH 49 0
DWIDTH 8 0
BBX 7 9 0 0
BITMAP
1E
10
20
3C
06
06
0E
8C
F0
ENDCHAR

STARTCHAR char54
ENCODING 54
SWIDTH 49 0
DWIDTH 8 0
BBX 8 10 0 0
BITMAP
03
04
0C
18
3C
66
C6
C6
CC
78
ENDCHAR

STARTCHAR char55
ENCODING 55
SWIDTH 49 0
DWIDTH 8 0
BBX 7 9 1 0
BITMAP
7E
FC
08
08
10
30
20
60
C0
ENDCHAR

STARTCHAR char56
ENCODING 56
SWIDTH 49 0
DWIDTH 8 0
BBX 8 9 0 0
BITMAP
1E
33
33
3E
1C
6E
C6
C6
7C
ENDCHAR

STARTCHAR char57
ENCODING 57
SWIDTH 49 0
DWIDTH 8 0
BBX 8 10 0 -1
BITMAP
1E
23
63
67
66
2C
18
30
40
80
ENDCHAR

STARTCHAR char58
ENCODING 58
SWIDTH 24 0
DWIDTH 4 0
BBX 3 6 1 0
BITMAP
60
60
00
00
80
80
ENDCHAR

STARTCHAR char59
ENCODING 59
SWIDTH 24 0
DWIDTH 4 0
BBX 4 8 0 -2
BITMAP
30
30
00
00
60
60
40
40
ENDCHAR

STARTCHAR char60
ENCODING 60
SWIDTH 55 0
DWIDTH 9 0
BBX 7 7 1 0
BITMAP
06
18
E0
80
60
1C
02
ENDCHAR

STARTCHAR char61
ENCODING 61
SWIDTH 55 0
DWIDTH 9 0
BBX 10 4 0 2
BITMAP
FFC0
0000
0000
FFC0
ENDCHAR

STARTCHAR char62
ENCODING 62
SWIDTH 55 0
DWIDTH 9 0
BBX 7 7 1 0
BITMAP
C0
30
0C
02
1C
60
80
ENDCHAR

STARTCHAR char63
ENCODING 63
SWIDTH 36 0
DWIDTH 6 0
BBX 5 10 1 0
BITMAP
30
48
58
78
70
C0
90
60
C0
C0
ENDCHAR

STARTCHAR char64
ENCODING 64
SWIDTH 29 0
DWIDTH 15 0
BBX 11 11 2 0
BITMAP
0F00
3180
6040
4FE0
D160
F160
F340
F240
7F80
30C0
1F00
ENDCHAR

STARTCHAR char65
ENCODING 65
SWIDTH 17 0
DWIDTH 13 0
BBX 14 10 -1 0
BITMAP
001C
002C
0028
0058
0058
3FB0
60B0
C170
C660
787C
ENDCHAR

STARTCHAR char66
ENCODING 66
SWIDTH 5 0
DWIDTH 11 0
BBX 12 10 -1 0
BITMAP
0FA0
2130
4330
C360
C280
C660
4630
0460
1860
3F80
ENDCHAR

STARTCHAR char67
ENCODING 67
SWIDTH 55 0
DWIDTH 9 0
BBX 10 10 -1 0
BITMAP
07C0
18C0
32C0
64C0
6880
F100
F200
DC00
4000
3F80
ENDCHAR

STARTCHAR char68
ENCODING 68
SWIDTH 17 0
DWIDTH 13 0
BBX 14 10 -1 0
BITMAP
0FF0
1098
218C
410C
C30C
C31C
C218
0630
0460
0C00
ENDCHAR

STARTCHAR char69
ENCODING 69
SWIDTH 55 0
DWIDTH 9 0
BBX 9 10 0 0
BITMAP
0F00
0900
0B00
0C00
1000
6000
C100
C180
C300
7C00
ENDCHAR

STARTCHAR char70
ENCODING 70
SWIDTH 23 0
DWIDTH 14 0
BBX 15 13 -1 -3
BITMAP
07E0
381E
2010
4030
4020
C1FE
C0E0
C0E0
41C0
01C0
02C0
06C0
0700
ENDCHAR

STARTCHAR char71
ENCODING 71
SWIDTH 11 0
DWIDTH 12 0
BBX 12 13 0 -3
BITMAP
03F0
0C30
1820
30C0
3120
6660
7860
E0C0
63C0
3CB0
01C0
0F00
1C00
ENDCHAR

STARTCHAR char72
ENCODING 72
SWIDTH 17 0
DWIDTH 13 0
BBX 14 11 0 0
BITMAP
0608
7F1C
8168
82F0
07C0
0688
0D8C
3D8C
4B08
DB10
E3E0
ENDCHAR

STARTCHAR char73
ENCODING 73
SWIDTH 55 0
DWIDTH 9 0
BBX 11 10 -1 0
BITMAP
1FE0
2040
2040
00C0
00C0
0180
3F80
C340
C200
7C00
ENDCHAR

STARTCHAR char74
ENCODING 74
SWIDTH 55 0
DWIDTH 9 0
BBX 11 14 -1 -3
BITMAP
03A0
0C40
1040
20C0
4080
4180
4180
4300
C300
1E00
2600
4400
D800
2000
ENDCHAR

STARTCHAR char75
ENCODING 75
SWIDTH 23 0
DWIDTH 14 0
BBX 14 10 0 0
BITMAP
3FEC
2058
4090
01B0
01C0
0180
0180
03C0
0660
F87C
ENDCHAR

STARTCHAR char76
ENCODING 76
SWIDTH 5 0
DWIDTH 11 0
BBX 13 10 -1 0
BITMAP
00F8
0198
0118
0330
0320
02C0
0700
0400
7F00
F3E0
ENDCHAR

STARTCHAR char77
ENCODING 77
SWIDTH 36 0
DWIDTH 16 0
BBX 16 10 -1 0
BITMAP
007B
00BF
00BA
013E
0176
0274
02EC
04CC
89C8
700F
ENDCHAR

STARTCHAR char78
ENCODING 78
SWIDTH 17 0
DWIDTH 13 0
BBX 14 10 -1 0
BITMAP
0F8C
10F8
2088
4190
C3B0
C5B0
C760
8B60
1A60
1C3C
ENDCHAR

STARTCHAR char79
ENCODING 79
SWIDTH 61 0
DWIDTH 10 0
BBX 9 10 0 0
BITMAP
1700
2880
2880
4980
C180
C180
C100
C300
C600
7C00
ENDCHAR

STARTCHAR char80
ENCODING 80
SWIDTH 17 0
DWIDTH 13 0
BBX 14 13 -1 -3
BITMAP
07F0
1888
618C
430C
C30C
C20C
8618
4618
0C30
0FC0
0C00
1800
1000
ENDCHAR

STARTCHAR char81
ENCODING 81
SWIDTH 55 0
DWIDTH 9 0
BBX 11 13 -1 -3
BITMAP
1F80
30C0
60C0
60C0
E1C0
C180
4180
4300
1C00
FE20
0360
00C0
0040
ENDCHAR

STARTCHAR char82
ENCODING 82
SWIDTH 11 0
DWIDTH 12 0
BBX 13 10 -1 0
BITMAP
07F0
1998
2118
4318
C230
C620
C6C0
4700
4D80
08F0
ENDCHAR

STARTCHAR char83
ENCODING 83
SWIDTH 49 0
DWIDTH 8 0
BBX 8 10 0 0
BITMAP
0F
1B
1A
1C
0C
0E
7E
C6
C4
78
ENDCHAR

STARTCHAR char84
ENCODING 84
SWIDTH 61 0
DWIDTH 10 0
BBX 12 10 -1 0
BITMAP
1FF0
2040
4040
C0C0
C0C0
C0C0
5D80
2180
6100
3E00
ENDCHAR

STARTCHAR char85
ENCODING 85
SWIDTH 17 0
DWIDTH 13 0
BBX 14 10 -1 0
BITMAP
0FC8
11DC
2198
43B8
C330
C670
C6A0
4CE0
4D60
0E78
ENDCHAR

STARTCHAR char86
ENCODING 86
SWIDTH 17 0
DWIDTH 13 0
BBX 14 10 -1 0
BITMAP
07CC
188C
218C
410C
C30C
C608
C618
4610
0620
03C0
ENDCHAR

STARTCHAR char87
ENCODING 87
SWIDTH 36 0
DWIDTH 16 0
BBX 16 10 0 0
BITMAP
3FE6
C263
84C3
0CC3
0DC7
0A86
1B86
1D8C
1998
19E0
ENDCHAR

STARTCHAR char88
ENCODING 88
SWIDTH 17 0
DWIDTH 13 0
BBX 15 10 -1 0
BITMAP
0FDE
30E0
61E0
C1C0
C1E6
C386
4386
070C
0B18
F1E0
ENDCHAR

STARTCHAR char89
ENCODING 89
SWIDTH 17 0
DWIDTH 13 0
BBX 14 13 -1 -3
BITMAP
0F08
319C
4398
C738
C730
CE70
4EB0
4EA0
0F7C
0FE0
06C0
0D80
0F00
ENDCHAR

STARTCHAR char90
ENCODING 90
SWIDTH 17 0
DWIDTH 13 0
BBX 14 10 -1 0
BITMAP
07E0
0918
0B30
1370
33F8
32C0
3580
1A00
7F8C
F7F0
ENDCHAR

STARTCHAR char91
ENCODING 91
SWIDTH 36 0
DWIDTH 6 0
BBX 7 13 -1 -3
BITMAP
0E
0C
18
18
10
30
30
20
60
40
C0
C0
60
ENDCHAR

STARTCHAR char92
ENCODING 92
SWIDTH 24 0
DWIDTH 4 0
BBX 4 11 0 0
BITMAP
80
80
80
40
40
40
20
20
20
10
10
ENDCHAR

STARTCHAR char93
ENCODING 93
SWIDTH 36 0
DWIDTH 6 0
BBX 8 14 -3 -3
BITMAP
06
03
02
06
06
04
0C
0C
18
18
18
30
30
70
ENDCHAR

STARTCHAR char94
ENCODING 94
SWIDTH 0 0
DWIDTH 0 0
BBX 3 2 0 11
BITMAP
60
A0
ENDCHAR

STARTCHAR char95
ENCODING 95
SWIDTH 49 0
DWIDTH 8 0
BBX 8 1 0 -2
BITMAP
FF
ENDCHAR

STARTCHAR char96
ENCODING 96
SWIDTH 0 0
DWIDTH 0 0
BBX 4 3 -1 7
BITMAP
E0
60
20
ENDCHAR

STARTCHAR char97
ENCODING 97
SWIDTH 43 0
DWIDTH 7 0
BBX 8 6 -1 0
BITMAP
1C
72
64
C4
CC
76
ENDCHAR

STARTCHAR char98
ENCODING 98
SWIDTH 36 0
DWIDTH 6 0
BBX 8 10 -1 0
BITMAP
08
18
10
34
3E
6E
6E
E4
CB
F0
ENDCHAR

STARTCHAR char99
ENCODING 99
SWIDTH 30 0
DWIDTH 5 0
BBX 6 6 0 0
BITMAP
1C
2C
50
D0
C0
70
ENDCHAR

STARTCHAR char100
ENCODING 100
SWIDTH 43 0
DWIDTH 7 0
BBX 9 10 -1 0
BITMAP
0180
0100
0300
0200
1E00
6600
6400
EC00
CC00
F700
ENDCHAR

STARTCHAR char101
ENCODING 101
SWIDTH 30 0
DWIDTH 5 0
BBX 5 6 0 0
BITMAP
38
68
50
E0
80
F0
ENDCHAR

STARTCHAR char102
ENCODING 102
SWIDTH 30 0
DWIDTH 5 0
BBX 7 13 -1 -3
BITMAP
06
0A
0A
1C
1C
1C
70
F0
E0
78
60
C0
40
ENDCHAR

STARTCHAR char103
ENCODING 103
SWIDTH 43 0
DWIDTH 7 0
BBX 8 9 -1 -3
BITMAP
1C
66
66
E4
CC
FF
18
38
60
ENDCHAR

STARTCHAR char104
ENCODING 104
SWIDTH 49 0
DWIDTH 8 0
BBX 8 10 0 0
BITMAP
10
30
30
20
64
7C
5C
FC
D8
DE
ENDCHAR

STARTCHAR char105
ENCODING 105
SWIDTH 24 0
DWIDTH 4 0
BBX 4 9 0 0
BITMAP
30
30
00
20
60
40
C0
C0
E0
ENDCHAR

STARTCHAR char106
ENCODING 106
SWIDTH 30 0
DWIDTH 5 0
BBX 6 12 -1 -3
BITMAP
0C
0C
00
08
78
50
30
FC
A0
E0
A0
40
ENDCHAR

STARTCHAR char107
ENCODING 107
SWIDTH 43 0
DWIDTH 7 0
BBX 7 10 0 0
BITMAP
30
30
20
60
6E
56
FC
F0
D0
CE
ENDCHAR

STARTCHAR char108
ENCODING 108
SWIDTH 24 0
DWIDTH 4 0
BBX 4 10 0 0
BITMAP
10
30
30
20
60
40
40
C0
C0
E0
ENDCHAR

STARTCHAR char109
ENCODING 109
SWIDTH 5 0
DWIDTH 11 0
BBX 12 6 -1 0
BITMAP
0660
6FE0
77E0
DFC0
EF80
EFE0
ENDCHAR

STARTCHAR char110
ENCODING 110
SWIDTH 49 0
DWIDTH 8 0
BBX 8 6 0 0
BITMAP
2C
7C
5C
FC
D8
DE
ENDCHAR

STARTCHAR char111
ENCODING 111
SWIDTH 36 0
DWIDTH 6 0
BBX 8 7 -1 0
BITMAP
08
3C
7C
6C
C6
C8
F8
ENDCHAR

STARTCHAR char112
ENCODING 112
SWIDTH 49 0
DWIDTH 8 0
BBX 9 7 -1 -2
BITMAP
3E00
5600
B600
F400
E980
7600
6000
ENDCHAR

STARTCHAR char113
ENCODING 113
SWIDTH 43 0
DWIDTH 7 0
BBX 8 9 -1 -3
BITMAP
1E
66
64
C4
C8
7A
1C
1C
10
ENDCHAR

STARTCHAR char114
ENCODING 114
SWIDTH 30 0
DWIDTH 5 0
BBX 5 6 0 0
BITMAP
28
70
50
F0
C8
C0
ENDCHAR

STARTCHAR char115
ENCODING 115
SWIDTH 30 0
DWIDTH 5 0
BBX 5 6 0 0
BITMAP
30
30
60
70
A0
F8
ENDCHAR

STARTCHAR char116
ENCODING 116
SWIDTH 24 0
DWIDTH 4 0
BBX 4 9 0 0
BITMAP
10
20
20
F0
40
40
C0
C0
E0
ENDCHAR

STARTCHAR char117
ENCODING 117
SWIDTH 43 0
DWIDTH 7 0
BBX 8 5 -1 0
BITMAP
36
66
E4
CC
F7
ENDCHAR

STARTCHAR char118
ENCODING 118
SWIDTH 43 0
DWIDTH 7 0
BBX 8 7 -1 0
BITMAP
04
3E
6E
6E
E4
CF
F0
ENDCHAR

STARTCHAR char119
ENCODING 119
SWIDTH 61 0
DWIDTH 10 0
BBX 11 7 -1 0
BITMAP
00C0
33E0
67A0
64E0
ECC0
CCA0
FF00
ENDCHAR

STARTCHAR char120
ENCODING 120
SWIDTH 43 0
DWIDTH 7 0
BBX 9 6 -1 0
BITMAP
7380
4F00
0E00
3800
D000
EE00
ENDCHAR

STARTCHAR char121
ENCODING 121
SWIDTH 43 0
DWIDTH 7 0
BBX 8 8 -1 -3
BITMAP
66
66
EC
CC
FF
18
78
60
ENDCHAR

STARTCHAR char122
ENCODING 122
SWIDTH 36 0
DWIDTH 6 0
BBX 6 6 0 0
BITMAP
78
58
70
C0
E0
B8
ENDCHAR

STARTCHAR char123
ENCODING 123
SWIDTH 30 0
DWIDTH 5 0
BBX 3 14 1 -3
BITMAP
60
C0
C0
40
C0
40
80
80
C0
C0
C0
C0
C0
60
ENDCHAR

STARTCHAR char124
ENCODING 124
SWIDTH 24 0
DWIDTH 4 0
BBX 2 11 1 0
BITMAP
C0
C0
C0
C0
C0
C0
C0
C0
C0
C0
C0
ENDCHAR

STARTCHAR char125
ENCODING 125
SWIDTH 30 0
DWIDTH 5 0
BBX 3 14 1 -3
BITMAP
80
C0
C0
C0
C0
C0
60
60
C0
40
40
C0
C0
80
ENDCHAR

STARTCHAR char126
ENCODING 126
SWIDTH 0 0
DWIDTH 0 0
BBX 6 2 -1 11
BITMAP
64
78
ENDCHAR

STARTCHAR char128
ENCODING 128
SWIDTH 55 0
DWIDTH 9 0
BBX 11 10 -2 0
BITMAP
03E0
6C20
3C00
7E00
3D80
7300
6080
6000
2000
1FC0
ENDCHAR

STARTCHAR char130
ENCODING 130
SWIDTH 18 0
DWIDTH 3 0
BBX 3 4 0 -2
BITMAP
60
60
40
80
ENDCHAR

STARTCHAR char131
ENCODING 131
SWIDTH 0 0
DWIDTH 0 0
BBX 3 2 0 11
BITMAP
60
A0
ENDCHAR

STARTCHAR char132
ENCODING 132
SWIDTH 36 0
DWIDTH 6 0
BBX 5 4 0 -2
BITMAP
68
78
50
90
ENDCHAR

STARTCHAR char133
ENCODING 133
SWIDTH 29 0
DWIDTH 15 0
BBX 12 2 1 0
BITMAP
C630
C630
ENDCHAR

STARTCHAR char134
ENCODING 134
SWIDTH 36 0
DWIDTH 6 0
BBX 6 12 1 -2
BITMAP
18
10
FC
28
70
60
40
40
80
80
80
80
ENDCHAR

STARTCHAR char136
ENCODING 136
SWIDTH 0 0
DWIDTH 0 0
BBX 4 3 -1 7
BITMAP
20
60
90
ENDCHAR

STARTCHAR char139
ENCODING 139
SWIDTH 30 0
DWIDTH 5 0
BBX 3 4 1 2
BITMAP
60
C0
C0
60
ENDCHAR

STARTCHAR char140
ENCODING 140
SWIDTH 29 0
DWIDTH 15 0
BBX 16 10 -1 0
BITMAP
0F9E
18D2
28F6
68D8
40A0
C1C0
C182
C183
C386
7CF8
ENDCHAR

STARTCHAR char145
ENCODING 145
SWIDTH 18 0
DWIDTH 3 0
BBX 3 4 1 6
BITMAP
40
C0
C0
80
ENDCHAR

STARTCHAR char146
ENCODING 146
SWIDTH 18 0
DWIDTH 3 0
BBX 3 4 1 6
BITMAP
60
60
40
80
ENDCHAR

STARTCHAR char147
ENCODING 147
SWIDTH 36 0
DWIDTH 6 0
BBX 6 4 1 6
BITMAP
28
48
D8
50
ENDCHAR

STARTCHAR char148
ENCODING 148
SWIDTH 36 0
DWIDTH 6 0
BBX 6 4 1 6
BITMAP
6C
6C
48
B0
ENDCHAR

STARTCHAR char149
ENCODING 149
SWIDTH 30 0
DWIDTH 5 0
BBX 4 4 0 3
BITMAP
60
F0
F0
60
ENDCHAR

STARTCHAR char150
ENCODING 150
SWIDTH 49 0
DWIDTH 8 0
BBX 7 1 0 2
BITMAP
FE
ENDCHAR

STARTCHAR char151
ENCODING 151
SWIDTH 55 0
DWIDTH 9 0
BBX 10 1 0 4
BITMAP
FFC0
ENDCHAR

STARTCHAR char152
ENCODING 152
SWIDTH 0 0
DWIDTH 0 0
BBX 5 1 -1 8
BITMAP
F8
ENDCHAR

STARTCHAR char153
ENCODING 153
SWIDTH 11 0
DWIDTH 12 0
BBX 12 6 0 4
BITMAP
FE30
BA60
6360
6360
63E0
66F0
ENDCHAR

STARTCHAR char155
ENCODING 155
SWIDTH 30 0
DWIDTH 5 0
BBX 3 4 1 2
BITMAP
C0
60
60
80
ENDCHAR

STARTCHAR char156
ENCODING 156
SWIDTH 49 0
DWIDTH 8 0
BBX 10 6 -1 0
BITMAP
1B80
6780
6500
CE00
CC00
FF80
ENDCHAR

STARTCHAR char159
ENCODING 159
SWIDTH 17 0
DWIDTH 13 0
BBX 14 16 -1 -3
BITMAP
01E0
01E0
0000
0F08
319C
4398
C738
C730
CE70
4E70
4EA0
0F7C
0FE0
06C0
0D80
0F00
ENDCHAR

STARTCHAR char160
ENCODING 160
SWIDTH 24 0
DWIDTH 4 0
BBX 0 0 0 0
BITMAP
ENDCHAR

STARTCHAR char161
ENCODING 161
SWIDTH 30 0
DWIDTH 5 0
BBX 5 10 0 0
BITMAP
18
18
00
20
20
20
60
40
C0
40
ENDCHAR

STARTCHAR char162
ENCODING 162
SWIDTH 30 0
DWIDTH 5 0
BBX 6 9 0 -1
BITMAP
10
10
18
6C
50
E0
E0
F0
40
ENDCHAR

STARTCHAR char163
ENCODING 163
SWIDTH 61 0
DWIDTH 10 0
BBX 11 10 -1 0
BITMAP
03C0
0460
0C20
0C00
3F80
0C00
0400
0400
FF80
6700
ENDCHAR

STARTCHAR char164
ENCODING 164
SWIDTH 0 0
DWIDTH 0 0
BBX 3 2 1 11
BITMAP
60
80
ENDCHAR

STARTCHAR char165
ENCODING 165
SWIDTH 0 0
DWIDTH 0 0
BBX 4 2 0 11
BITMAP
D0
60
ENDCHAR

STARTCHAR char167
ENCODING 167
SWIDTH 43 0
DWIDTH 7 0
BBX 9 14 -2 -4
BITMAP
0300
0580
0D80
0C00
0E00
1600
2700
3300
1200
1C00
0C00
CC00
CC00
7000
ENDCHAR

STARTCHAR char168
ENCODING 168
SWIDTH 0 0
DWIDTH 0 0
BBX 5 2 -1 7
BITMAP
D8
D8
ENDCHAR

STARTCHAR char169
ENCODING 169
SWIDTH 5 0
DWIDTH 11 0
BBX 11 10 0 0
BITMAP
0E00
3100
4E80
5240
F260
F060
F060
5E40
6080
1F00
ENDCHAR

STARTCHAR char170
ENCODING 170
SWIDTH 0 0
DWIDTH 0 0
BBX 4 2 0 11
BITMAP
F0
F0
ENDCHAR

STARTCHAR char171
ENCODING 171
SWIDTH 36 0
DWIDTH 6 0
BBX 6 4 0 1
BITMAP
6C
D0
D8
68
ENDCHAR

STARTCHAR char172
ENCODING 172
SWIDTH 61 0
DWIDTH 10 0
BBX 10 4 0 0
BITMAP
FFC0
00C0
00C0
00C0
ENDCHAR

STARTCHAR char174
ENCODING 174
SWIDTH 5 0
DWIDTH 11 0
BBX 11 10 0 0
BITMAP
0E00
3100
5E80
5B40
D360
DC60
DE60
5B40
6080
1F00
ENDCHAR

STARTCHAR char176
ENCODING 176
SWIDTH 24 0
DWIDTH 4 0
BBX 6 5 0 5
BITMAP
30
48
CC
48
30
ENDCHAR

STARTCHAR char177
ENCODING 177
SWIDTH 43 0
DWIDTH 7 0
BBX 7 9 0 0
BITMAP
18
18
18
FE
18
18
18
00
FE
ENDCHAR

STARTCHAR char180
ENCODING 180
SWIDTH 0 0
DWIDTH 0 0
BBX 4 3 0 7
BITMAP
70
60
80
ENDCHAR

STARTCHAR char182
ENCODING 182
SWIDTH 61 0
DWIDTH 10 0
BBX 7 12 1 -2
BITMAP
3E
76
F6
F6
76
36
36
36
36
36
36
36
ENDCHAR

STARTCHAR char183
ENCODING 183
SWIDTH 12 0
DWIDTH 2 0
BBX 2 2 1 3
BITMAP
C0
C0
ENDCHAR

STARTCHAR char184
ENCODING 184
SWIDTH 0 0
DWIDTH 0 0
BBX 3 3 -3 -3
BITMAP
60
60
80
ENDCHAR

STARTCHAR char186
ENCODING 186
SWIDTH 0 0
DWIDTH 0 0
BBX 6 2 -1 11
BITMAP
64
78
ENDCHAR

STARTCHAR char187
ENCODING 187
SWIDTH 36 0
DWIDTH 6 0
BBX 6 4 0 1
BITMAP
58
6C
2C
D0
ENDCHAR

STARTCHAR char191
ENCODING 191
SWIDTH 36 0
DWIDTH 6 0
BBX 6 10 -1 0
BITMAP
0C
0C
18
14
0C
18
30
68
C8
70
ENDCHAR

STARTCHAR char192
ENCODING 192
SWIDTH 17 0
DWIDTH 13 0
BBX 14 13 -1 0
BITMAP
0180
0080
0000
001C
002C
0028
0058
0058
3FB0
60B0
C170
C660
787C
ENDCHAR

STARTCHAR char193
ENCODING 193
SWIDTH 17 0
DWIDTH 13 0
BBX 14 13 -1 0
BITMAP
0060
0080
0000
001C
002C
0028
0058
0058
3FB0
60B0
C170
C660
787C
ENDCHAR

STARTCHAR char194
ENCODING 194
SWIDTH 17 0
DWIDTH 13 0
BBX 14 13 -1 0
BITMAP
00C0
0140
0000
001C
002C
0028
0058
0058
3FB0
60B0
C170
C660
787C
ENDCHAR

STARTCHAR char195
ENCODING 195
SWIDTH 17 0
DWIDTH 13 0
BBX 14 13 -1 0
BITMAP
0190
02E0
0000
001C
002C
0028
0058
0058
3FB0
60B0
C170
C660
787C
ENDCHAR

STARTCHAR char196
ENCODING 196
SWIDTH 17 0
DWIDTH 13 0
BBX 16 13 -1 0
BITMAP
001B
001B
0000
001C
002C
0038
0058
0050
3FB0
60B0
C160
C660
787C
ENDCHAR

STARTCHAR char197
ENCODING 197
SWIDTH 17 0
DWIDTH 13 0
BBX 15 13 -1 0
BITMAP
000E
000E
000E
0014
0024
0028
0058
0050
3FB8
60B0
C170
C660
787C
ENDCHAR

STARTCHAR char198
ENCODING 198
SWIDTH 36 0
DWIDTH 16 0
BBX 17 11 -1 0
BITMAP
001380
00F780
00BD80
016D80
016A00
01C800
1EF000
63C100
C58180
C98300
F8FC00
ENDCHAR

STARTCHAR char199
ENCODING 199
SWIDTH 55 0
DWIDTH 9 0
BBX 10 13 -1 -3
BITMAP
07C0
18C0
32C0
64C0
6880
F100
D200
CC00
4000
2780
1800
3800
2000
ENDCHAR

STARTCHAR char200
ENCODING 200
SWIDTH 55 0
DWIDTH 9 0
BBX 9 13 0 0
BITMAP
0C00
0600
0000
0F00
0900
0B00
0C00
1000
6000
C100
C180
C300
7C00
ENDCHAR

STARTCHAR char201
ENCODING 201
SWIDTH 55 0
DWIDTH 9 0
BBX 9 13 0 0
BITMAP
0300
0600
0000
0F00
0900
0B00
0C00
1000
6000
C100
C180
C300
7C00
ENDCHAR

STARTCHAR char202
ENCODING 202
SWIDTH 55 0
DWIDTH 9 0
BBX 9 13 0 0
BITMAP
0600
0A00
0000
0F00
0900
0B00
0C00
1000
6000
C100
C180
C300
7C00
ENDCHAR

STARTCHAR char203
ENCODING 203
SWIDTH 55 0
DWIDTH 9 0
BBX 9 13 0 0
BITMAP
0F00
0F00
0000
0F00
0D00
0B00
0A00
1000
6000
C180
C180
C100
7E00
ENDCHAR

STARTCHAR char204
ENCODING 204
SWIDTH 55 0
DWIDTH 9 0
BBX 11 13 -1 0
BITMAP
0600
0100
0000
1FE0
2040
2040
00C0
00C0
0180
3F80
C340
C200
7C00
ENDCHAR

STARTCHAR char205
ENCODING 205
SWIDTH 55 0
DWIDTH 9 0
BBX 11 13 -1 0
BITMAP
0180
0300
0000
1FE0
2040
2040
00C0
00C0
0180
3F80
C340
C200
7C00
ENDCHAR

STARTCHAR char206
ENCODING 206
SWIDTH 55 0
DWIDTH 9 0
BBX 11 13 -1 0
BITMAP
0300
0500
0000
1FE0
2040
2040
00C0
00C0
0180
3F80
C340
C200
7C00
ENDCHAR

STARTCHAR char207
ENCODING 207
SWIDTH 55 0
DWIDTH 9 0
BBX 11 13 -1 0
BITMAP
0780
0780
0000
1FE0
2040
20C0
00C0
00C0
0180
3F80
C340
C600
7C00
ENDCHAR

STARTCHAR char209
ENCODING 209
SWIDTH 17 0
DWIDTH 13 0
BBX 14 13 -1 0
BITMAP
0190
02E0
0000
0F8C
10F8
2088
4190
C3B0
C5B0
C760
CB60
1A60
1C3C
ENDCHAR

STARTCHAR char210
ENCODING 210
SWIDTH 61 0
DWIDTH 10 0
BBX 9 13 0 0
BITMAP
0600
0200
0000
1700
2880
2880
4980
C180
C180
C100
C300
C600
7C00
ENDCHAR

STARTCHAR char211
ENCODING 211
SWIDTH 61 0
DWIDTH 10 0
BBX 9 13 0 0
BITMAP
0300
0200
0000
1700
2880
2880
4980
C180
C180
C100
C300
C600
7C00
ENDCHAR

STARTCHAR char212
ENCODING 212
SWIDTH 61 0
DWIDTH 10 0
BBX 9 13 0 0
BITMAP
0600
0600
0000
1700
2880
2880
4980
C180
C180
C100
C300
C600
7C00
ENDCHAR

STARTCHAR char213
ENCODING 213
SWIDTH 61 0
DWIDTH 10 0
BBX 9 13 0 0
BITMAP
0680
0B00
0000
1780
2880
2880
4980
C180
C180
C100
C300
C600
7C00
ENDCHAR

STARTCHAR char214
ENCODING 214
SWIDTH 61 0
DWIDTH 10 0
BBX 9 13 0 0
BITMAP
0D80
0D80
0000
1780
2880
2880
4880
C080
C180
C180
C300
C700
7C00
ENDCHAR

STARTCHAR char216
ENCODING 216
SWIDTH 61 0
DWIDTH 10 0
BBX 9 11 0 0
BITMAP
0080
1780
2980
2A80
4D80
C980
D180
D100
E300
C600
BC00
ENDCHAR

STARTCHAR char217
ENCODING 217
SWIDTH 17 0
DWIDTH 13 0
BBX 14 13 -1 0
BITMAP
01C0
00C0
0000
0FC8
11DC
2198
43B8
C330
C670
C6A0
4CE0
4D60
0E78
ENDCHAR

STARTCHAR char218
ENCODING 218
SWIDTH 17 0
DWIDTH 13 0
BBX 14 13 -1 0
BITMAP
0040
0080
0000
0FC8
11DC
2198
43B8
C330
C670
C6A0
4CE0
4D60
0E78
ENDCHAR

STARTCHAR char219
ENCODING 219
SWIDTH 17 0
DWIDTH 13 0
BBX 14 13 -1 0
BITMAP
00C0
0140
0000
0FC8
11DC
2198
43B8
C330
C670
C6A0
4CE0
4D60
0E78
ENDCHAR

STARTCHAR char220
ENCODING 220
SWIDTH 17 0
DWIDTH 13 0
BBX 15 13 -1 0
BITMAP
0078
0078
0000
0FCA
11DC
2198
43B8
C330
C670
C6A0
4CE0
4D60
0E78
ENDCHAR

STARTCHAR char223
ENCODING 223
SWIDTH 55 0
DWIDTH 9 0
BBX 10 13 -1 -3
BITMAP
0780
0980
1B00
1600
1400
3300
2180
3D80
6340
FC00
6000
4000
8000
ENDCHAR

STARTCHAR char224
ENCODING 224
SWIDTH 43 0
DWIDTH 7 0
BBX 8 10 -1 0
BITMAP
1C
0C
02
00
1C
72
64
C4
CC
76
ENDCHAR

STARTCHAR char225
ENCODING 225
SWIDTH 43 0
DWIDTH 7 0
BBX 8 10 -1 0
BITMAP
03
06
0C
00
1C
72
64
C4
CC
76
ENDCHAR

STARTCHAR char226
ENCODING 226
SWIDTH 43 0
DWIDTH 7 0
BBX 8 10 -1 0
BITMAP
04
0A
12
00
1C
72
64
C4
CC
76
ENDCHAR

STARTCHAR char227
ENCODING 227
SWIDTH 43 0
DWIDTH 7 0
BBX 9 9 -1 0
BITMAP
0F80
0000
0000
1C00
7200
6400
C400
CC00
7600
ENDCHAR

STARTCHAR char228
ENCODING 228
SWIDTH 43 0
DWIDTH 7 0
BBX 8 9 -1 0
BITMAP
0F
0F
00
1A
76
66
CC
CC
F6
ENDCHAR

STARTCHAR char229
ENCODING 229
SWIDTH 43 0
DWIDTH 7 0
BBX 8 10 -1 0
BITMAP
0F
0F
0F
00
38
66
6E
EC
CC
7E
ENDCHAR

STARTCHAR char230
ENCODING 230
SWIDTH 49 0
DWIDTH 8 0
BBX 10 6 -1 0
BITMAP
1DC0
66C0
6580
EE00
CC00
7F80
ENDCHAR

STARTCHAR char231
ENCODING 231
SWIDTH 30 0
DWIDTH 5 0
BBX 6 9 0 -3
BITMAP
1C
2C
58
D0
C0
F8
60
E0
80
ENDCHAR

STARTCHAR char232
ENCODING 232
SWIDTH 30 0
DWIDTH 5 0
BBX 5 10 0 0
BITMAP
30
30
18
00
38
68
50
E0
80
F0
ENDCHAR

STARTCHAR char233
ENCODING 233
SWIDTH 30 0
DWIDTH 5 0
BBX 6 10 0 0
BITMAP
0C
18
10
00
38
68
50
E0
80
F0
ENDCHAR

STARTCHAR char234
ENCODING 234
SWIDTH 30 0
DWIDTH 5 0
BBX 5 10 0 0
BITMAP
18
38
28
00
38
68
50
E0
80
F0
ENDCHAR

STARTCHAR char235
ENCODING 235
SWIDTH 30 0
DWIDTH 5 0
BBX 6 9 0 0
BITMAP
3C
38
00
38
68
50
E0
80
F0
ENDCHAR

STARTCHAR char236
ENCODING 236
SWIDTH 24 0
DWIDTH 4 0
BBX 4 10 0 0
BITMAP
60
20
10
00
20
60
40
C0
C0
E0
ENDCHAR

STARTCHAR char237
ENCODING 237
SWIDTH 24 0
DWIDTH 4 0
BBX 5 10 0 0
BITMAP
18
10
20
00
20
60
40
C0
C0
E0
ENDCHAR

STARTCHAR char238
ENCODING 238
SWIDTH 24 0
DWIDTH 4 0
BBX 4 10 0 0
BITMAP
30
50
50
00
20
60
40
C0
C0
E0
ENDCHAR

STARTCHAR char239
ENCODING 239
SWIDTH 24 0
DWIDTH 4 0
BBX 5 9 0 0
BITMAP
78
78
00
20
60
40
C0
C0
E0
ENDCHAR

STARTCHAR char241
ENCODING 241
SWIDTH 49 0
DWIDTH 8 0
BBX 8 9 0 0
BITMAP
1F
00
00
2C
7C
5C
FC
D8
DE
ENDCHAR

STARTCHAR char242
ENCODING 242
SWIDTH 36 0
DWIDTH 6 0
BBX 8 10 -1 0
BITMAP
18
1C
04
08
3C
7C
6C
C6
C8
F8
ENDCHAR

STARTCHAR char243
ENCODING 243
SWIDTH 36 0
DWIDTH 6 0
BBX 8 10 -1 0
BITMAP
07
06
08
08
3C
7C
6C
C6
C8
F8
ENDCHAR

STARTCHAR char244
ENCODING 244
SWIDTH 36 0
DWIDTH 6 0
BBX 8 10 -1 0
BITMAP
04
0C
12
08
3C
7C
6C
C6
C8
F8
ENDCHAR

STARTCHAR char245
ENCODING 245
SWIDTH 36 0
DWIDTH 6 0
BBX 8 9 -1 0
BITMAP
1F
00
08
3C
7C
6C
C6
C8
F8
ENDCHAR

STARTCHAR char246
ENCODING 246
SWIDTH 36 0
DWIDTH 6 0
BBX 8 9 -1 0
BITMAP
1E
1E
04
1C
2C
6C
C6
C8
F0
ENDCHAR

STARTCHAR char247
ENCODING 247
SWIDTH 43 0
DWIDTH 7 0
BBX 7 6 0 1
BITMAP
18
18
00
FE
18
18
ENDCHAR

STARTCHAR char248
ENCODING 248
SWIDTH 36 0
DWIDTH 6 0
BBX 8 9 -1 -1
BITMAP
04
0C
3C
7C
7C
DE
F8
F8
40
ENDCHAR

STARTCHAR char249
ENCODING 249
SWIDTH 43 0
DWIDTH 7 0
BBX 8 10 -1 0
BITMAP
0C
0C
02
00
12
26
66
E4
CC
F7
ENDCHAR

STARTCHAR char250
ENCODING 250
SWIDTH 43 0
DWIDTH 7 0
BBX 8 10 -1 0
BITMAP
03
06
0C
00
12
26
66
E4
CC
F7
ENDCHAR

STARTCHAR char251
ENCODING 251
SWIDTH 43 0
DWIDTH 7 0
BBX 8 10 -1 0
BITMAP
04
0A
12
00
12
26
66
E4
CC
F7
ENDCHAR

STARTCHAR char252
ENCODING 252
SWIDTH 43 0
DWIDTH 7 0
BBX 8 9 -1 0
BITMAP
0B
0B
00
11
66
66
EE
CC
F7
ENDCHAR

STARTCHAR char255
ENCODING 255
SWIDTH 43 0
DWIDTH 7 0
BBX 8 12 -1 -3
BITMAP
1B
1B
00
23
66
64
EC
C8
FF
18
70
60
ENDCHAR
ENDFONT
